<svg xmlns="http://www.w3.org/2000/svg" xmlns:xlink="http://www.w3.org/1999/xlink" width="500" zoomAndPan="magnify" viewBox="0 0 375 374.999991" height="500" preserveAspectRatio="xMidYMid meet" version="1.0"><defs><clipPath id="50aba5f8b6"><path d="M 120.585938 103.082031 L 210 103.082031 L 210 245.582031 L 120.585938 245.582031 Z M 120.585938 103.082031 " clip-rule="nonzero"/></clipPath><clipPath id="a27e6a360d"><path d="M 147 143 L 254.085938 143 L 254.085938 206 L 147 206 Z M 147 143 " clip-rule="nonzero"/></clipPath></defs><g clip-path="url(#50aba5f8b6)"><path fill="#000000" d="M 205.136719 196.59375 C 204.84375 196.59375 204.554688 196.625 204.269531 196.679688 C 203.980469 196.738281 203.703125 196.820312 203.433594 196.933594 C 203.164062 197.046875 202.90625 197.183594 202.664062 197.34375 C 202.421875 197.507812 202.195312 197.691406 201.988281 197.898438 C 201.785156 198.105469 201.597656 198.332031 201.4375 198.574219 C 201.273438 198.816406 201.136719 199.074219 201.027344 199.34375 C 200.914062 199.613281 200.828125 199.890625 200.773438 200.179688 C 200.714844 200.464844 200.6875 200.753906 200.6875 201.046875 L 200.6875 236.671875 L 129.488281 236.671875 L 129.488281 111.992188 L 200.6875 111.992188 L 200.6875 147.613281 C 200.6875 147.90625 200.714844 148.195312 200.773438 148.480469 C 200.828125 148.769531 200.914062 149.046875 201.027344 149.316406 C 201.136719 149.585938 201.273438 149.84375 201.4375 150.085938 C 201.597656 150.332031 201.785156 150.554688 201.988281 150.761719 C 202.195312 150.96875 202.421875 151.152344 202.664062 151.316406 C 202.90625 151.476562 203.164062 151.617188 203.433594 151.726562 C 203.703125 151.839844 203.980469 151.921875 204.269531 151.980469 C 204.554688 152.039062 204.84375 152.066406 205.136719 152.066406 C 205.429688 152.066406 205.71875 152.039062 206.003906 151.980469 C 206.292969 151.921875 206.570312 151.839844 206.839844 151.726562 C 207.109375 151.617188 207.367188 151.476562 207.609375 151.316406 C 207.851562 151.152344 208.078125 150.96875 208.285156 150.761719 C 208.488281 150.554688 208.675781 150.332031 208.835938 150.085938 C 209 149.84375 209.136719 149.585938 209.246094 149.316406 C 209.359375 149.046875 209.445312 148.769531 209.5 148.480469 C 209.558594 148.195312 209.585938 147.90625 209.585938 147.613281 L 209.585938 107.539062 C 209.585938 107.246094 209.558594 106.957031 209.5 106.667969 C 209.445312 106.382812 209.359375 106.105469 209.246094 105.832031 C 209.136719 105.5625 209 105.308594 208.835938 105.0625 C 208.675781 104.820312 208.488281 104.597656 208.285156 104.390625 C 208.078125 104.183594 207.851562 103.996094 207.609375 103.835938 C 207.367188 103.671875 207.109375 103.535156 206.839844 103.425781 C 206.570312 103.3125 206.292969 103.226562 206.003906 103.171875 C 205.71875 103.113281 205.429688 103.085938 205.136719 103.085938 L 125.035156 103.085938 C 124.746094 103.085938 124.457031 103.113281 124.167969 103.171875 C 123.882812 103.226562 123.605469 103.3125 123.332031 103.425781 C 123.0625 103.535156 122.808594 103.671875 122.566406 103.835938 C 122.320312 103.996094 122.097656 104.183594 121.890625 104.390625 C 121.683594 104.597656 121.5 104.820312 121.335938 105.0625 C 121.175781 105.308594 121.039062 105.5625 120.925781 105.832031 C 120.8125 106.105469 120.730469 106.382812 120.671875 106.667969 C 120.617188 106.957031 120.585938 107.246094 120.585938 107.539062 L 120.585938 241.125 C 120.585938 241.414062 120.617188 241.707031 120.671875 241.992188 C 120.730469 242.277344 120.8125 242.558594 120.925781 242.828125 C 121.039062 243.097656 121.175781 243.355469 121.335938 243.597656 C 121.5 243.839844 121.683594 244.066406 121.890625 244.273438 C 122.097656 244.480469 122.320312 244.664062 122.566406 244.824219 C 122.808594 244.988281 123.0625 245.125 123.332031 245.238281 C 123.605469 245.347656 123.882812 245.433594 124.167969 245.492188 C 124.457031 245.546875 124.746094 245.578125 125.035156 245.578125 L 205.136719 245.578125 C 205.429688 245.578125 205.71875 245.546875 206.003906 245.492188 C 206.292969 245.433594 206.570312 245.347656 206.839844 245.238281 C 207.109375 245.125 207.367188 244.988281 207.609375 244.824219 C 207.851562 244.664062 208.078125 244.480469 208.285156 244.273438 C 208.488281 244.066406 208.675781 243.839844 208.835938 243.597656 C 209 243.355469 209.136719 243.097656 209.246094 242.828125 C 209.359375 242.558594 209.445312 242.277344 209.5 241.992188 C 209.558594 241.707031 209.585938 241.414062 209.585938 241.125 L 209.585938 201.046875 C 209.585938 200.753906 209.558594 200.464844 209.5 200.179688 C 209.445312 199.890625 209.359375 199.613281 209.246094 199.34375 C 209.136719 199.074219 209 198.816406 208.835938 198.574219 C 208.675781 198.332031 208.488281 198.105469 208.285156 197.898438 C 208.078125 197.691406 207.851562 197.507812 207.609375 197.34375 C 207.367188 197.183594 207.109375 197.046875 206.839844 196.933594 C 206.570312 196.820312 206.292969 196.738281 206.003906 196.679688 C 205.71875 196.625 205.429688 196.59375 205.136719 196.59375 Z M 205.136719 196.59375 " fill-opacity="1" fill-rule="nonzero"/></g><g clip-path="url(#a27e6a360d)"><path fill="#000000" d="M 252.78125 171.183594 L 226.082031 144.464844 C 225.875 144.265625 225.648438 144.085938 225.40625 143.929688 C 225.164062 143.773438 224.910156 143.640625 224.640625 143.53125 C 224.371094 143.425781 224.097656 143.34375 223.8125 143.292969 C 223.527344 143.238281 223.242188 143.214844 222.953125 143.214844 C 222.664062 143.21875 222.378906 143.25 222.09375 143.308594 C 221.8125 143.363281 221.539062 143.449219 221.269531 143.5625 C 221.003906 143.671875 220.75 143.808594 220.511719 143.972656 C 220.269531 144.132812 220.050781 144.316406 219.84375 144.519531 C 219.640625 144.722656 219.457031 144.945312 219.296875 145.1875 C 219.136719 145.425781 219 145.679688 218.886719 145.945312 C 218.777344 146.214844 218.691406 146.488281 218.632812 146.769531 C 218.574219 147.054688 218.542969 147.339844 218.542969 147.628906 C 218.539062 147.917969 218.566406 148.207031 218.617188 148.488281 C 218.671875 148.773438 218.75 149.050781 218.859375 149.320312 C 218.964844 149.585938 219.097656 149.84375 219.253906 150.085938 C 219.410156 150.328125 219.589844 150.554688 219.789062 150.761719 L 238.894531 169.878906 L 151.738281 169.878906 C 151.445312 169.878906 151.15625 169.90625 150.867188 169.964844 C 150.582031 170.019531 150.304688 170.105469 150.035156 170.214844 C 149.765625 170.328125 149.507812 170.464844 149.265625 170.628906 C 149.023438 170.789062 148.796875 170.976562 148.589844 171.183594 C 148.382812 171.390625 148.199219 171.613281 148.035156 171.855469 C 147.875 172.101562 147.738281 172.355469 147.625 172.625 C 147.515625 172.898438 147.429688 173.175781 147.371094 173.460938 C 147.316406 173.75 147.285156 174.039062 147.285156 174.332031 C 147.285156 174.621094 147.316406 174.914062 147.371094 175.199219 C 147.429688 175.484375 147.515625 175.765625 147.625 176.035156 C 147.738281 176.304688 147.875 176.5625 148.035156 176.804688 C 148.199219 177.046875 148.382812 177.273438 148.589844 177.480469 C 148.796875 177.6875 149.023438 177.871094 149.265625 178.03125 C 149.507812 178.195312 149.765625 178.332031 150.035156 178.445312 C 150.304688 178.554688 150.582031 178.640625 150.867188 178.699219 C 151.15625 178.753906 151.445312 178.785156 151.738281 178.785156 L 238.894531 178.785156 L 219.789062 197.898438 C 219.578125 198.105469 219.386719 198.328125 219.21875 198.574219 C 219.050781 198.816406 218.910156 199.074219 218.792969 199.34375 C 218.675781 199.617188 218.589844 199.898438 218.527344 200.1875 C 218.464844 200.476562 218.433594 200.769531 218.433594 201.0625 C 218.429688 201.359375 218.457031 201.652344 218.511719 201.941406 C 218.566406 202.234375 218.652344 202.515625 218.761719 202.789062 C 218.875 203.0625 219.011719 203.320312 219.175781 203.570312 C 219.339844 203.816406 219.527344 204.042969 219.734375 204.25 C 219.945312 204.460938 220.171875 204.648438 220.417969 204.808594 C 220.664062 204.972656 220.921875 205.113281 221.195312 205.222656 C 221.46875 205.335938 221.753906 205.417969 222.042969 205.476562 C 222.332031 205.53125 222.625 205.558594 222.921875 205.554688 C 223.214844 205.550781 223.507812 205.519531 223.796875 205.460938 C 224.085938 205.398438 224.367188 205.3125 224.636719 205.195312 C 224.910156 205.078125 225.167969 204.933594 225.410156 204.765625 C 225.652344 204.597656 225.878906 204.410156 226.082031 204.195312 L 252.78125 177.480469 C 252.988281 177.273438 253.175781 177.046875 253.335938 176.804688 C 253.5 176.5625 253.636719 176.304688 253.746094 176.035156 C 253.859375 175.765625 253.945312 175.484375 254 175.199219 C 254.058594 174.914062 254.085938 174.621094 254.085938 174.332031 C 254.085938 174.039062 254.058594 173.75 254 173.460938 C 253.945312 173.175781 253.859375 172.898438 253.746094 172.625 C 253.636719 172.355469 253.5 172.101562 253.335938 171.855469 C 253.175781 171.613281 252.988281 171.390625 252.78125 171.183594 Z M 252.78125 171.183594 " fill-opacity="1" fill-rule="nonzero"/></g></svg>